<svg width="160" height="41" viewBox="0 0 160 41" fill="none" xmlns="http://www.w3.org/2000/svg">
<mask id="path-1-outside-1_63_287" maskUnits="userSpaceOnUse" x="52" y="11" width="109" height="26" fill="black">
<rect fill="white" x="52" y="11" width="109" height="26"/>
<path d="M58.856 30V15.624H53.264V13.08H67.544V15.624H61.952V30H58.856ZM67.5924 30V20.976C67.5924 20.464 67.5764 19.944 67.5444 19.416C67.5284 18.888 67.4884 18.376 67.4244 17.88H70.3284L70.6644 21.192H70.1844C70.3444 20.392 70.6084 19.728 70.9764 19.2C71.3604 18.672 71.8244 18.28 72.3684 18.024C72.9124 17.768 73.5044 17.64 74.1444 17.64C74.4324 17.64 74.6644 17.656 74.8404 17.688C75.0164 17.704 75.1924 17.744 75.3684 17.808L75.3444 20.448C75.0404 20.32 74.7764 20.24 74.5524 20.208C74.3444 20.176 74.0804 20.16 73.7604 20.16C73.0724 20.16 72.4884 20.304 72.0084 20.592C71.5444 20.88 71.1924 21.28 70.9524 21.792C70.7284 22.304 70.6164 22.888 70.6164 23.544V30H67.5924ZM81.6011 30.24C80.5451 30.24 79.6171 29.992 78.8171 29.496C78.0171 28.984 77.3931 28.256 76.9451 27.312C76.4971 26.368 76.2731 25.24 76.2731 23.928C76.2731 22.616 76.4971 21.496 76.9451 20.568C77.3931 19.624 78.0171 18.904 78.8171 18.408C79.6171 17.896 80.5451 17.64 81.6011 17.64C82.6251 17.64 83.5211 17.896 84.2891 18.408C85.0731 18.904 85.5931 19.576 85.8491 20.424H85.5851L85.8491 17.88H88.7291C88.6811 18.376 88.6331 18.88 88.5851 19.392C88.5531 19.904 88.5371 20.408 88.5371 20.904V30H85.5611L85.5371 27.504H85.8251C85.5691 28.336 85.0491 29 84.2651 29.496C83.4811 29.992 82.5931 30.24 81.6011 30.24ZM82.4411 27.936C83.3851 27.936 84.1451 27.608 84.7211 26.952C85.2971 26.28 85.5851 25.272 85.5851 23.928C85.5851 22.584 85.2971 21.584 84.7211 20.928C84.1451 20.272 83.3851 19.944 82.4411 19.944C81.4971 19.944 80.7371 20.272 80.1611 20.928C79.5851 21.584 79.2971 22.584 79.2971 23.928C79.2971 25.272 79.5771 26.28 80.1371 26.952C80.7131 27.608 81.4811 27.936 82.4411 27.936ZM92.6199 30V20.136H90.2919V17.88H93.4599L92.6199 18.648V16.8C92.6199 15.296 93.0039 14.16 93.7719 13.392C94.5559 12.624 95.6999 12.24 97.2039 12.24C97.5559 12.24 97.9239 12.264 98.3079 12.312C98.7079 12.36 99.0519 12.448 99.3399 12.576V14.928C99.1319 14.848 98.8839 14.784 98.5959 14.736C98.3079 14.688 98.0279 14.664 97.7559 14.664C97.3399 14.664 96.9639 14.744 96.6279 14.904C96.3079 15.064 96.0519 15.312 95.8599 15.648C95.6839 15.968 95.5959 16.4 95.5959 16.944V18.408L95.1639 17.88H98.7879V20.136H95.6199V30H92.6199ZM105.203 30.24C104.147 30.24 103.219 29.992 102.419 29.496C101.619 28.984 100.995 28.256 100.547 27.312C100.099 26.368 99.8746 25.24 99.8746 23.928C99.8746 22.616 100.099 21.496 100.547 20.568C100.995 19.624 101.619 18.904 102.419 18.408C103.219 17.896 104.147 17.64 105.203 17.64C106.227 17.64 107.123 17.896 107.891 18.408C108.675 18.904 109.195 19.576 109.451 20.424H109.187L109.451 17.88H112.331C112.283 18.376 112.235 18.88 112.187 19.392C112.155 19.904 112.139 20.408 112.139 20.904V30H109.163L109.139 27.504H109.427C109.171 28.336 108.651 29 107.867 29.496C107.083 29.992 106.195 30.24 105.203 30.24ZM106.043 27.936C106.987 27.936 107.747 27.608 108.323 26.952C108.899 26.28 109.187 25.272 109.187 23.928C109.187 22.584 108.899 21.584 108.323 20.928C107.747 20.272 106.987 19.944 106.043 19.944C105.099 19.944 104.339 20.272 103.763 20.928C103.187 21.584 102.899 22.584 102.899 23.928C102.899 25.272 103.179 26.28 103.739 26.952C104.315 27.608 105.083 27.936 106.043 27.936ZM115.405 30V12.336H118.405V30H115.405ZM127.279 35.376C126.159 35.376 125.143 35.256 124.231 35.016C123.335 34.776 122.535 34.408 121.831 33.912L122.479 31.752C122.943 32.056 123.423 32.304 123.919 32.496C124.415 32.688 124.927 32.832 125.455 32.928C125.983 33.024 126.519 33.072 127.063 33.072C128.183 33.072 129.015 32.792 129.559 32.232C130.119 31.688 130.399 30.904 130.399 29.88V26.976H130.639C130.383 27.808 129.863 28.472 129.079 28.968C128.311 29.464 127.423 29.712 126.415 29.712C125.327 29.712 124.375 29.472 123.559 28.992C122.759 28.496 122.135 27.792 121.687 26.88C121.239 25.968 121.015 24.896 121.015 23.664C121.015 22.432 121.239 21.368 121.687 20.472C122.135 19.56 122.759 18.864 123.559 18.384C124.375 17.888 125.327 17.64 126.415 17.64C127.439 17.64 128.327 17.888 129.079 18.384C129.847 18.864 130.359 19.52 130.615 20.352L130.399 20.208L130.639 17.88H133.543C133.479 18.376 133.431 18.88 133.399 19.392C133.367 19.904 133.351 20.408 133.351 20.904V29.52C133.351 31.424 132.831 32.872 131.791 33.864C130.767 34.872 129.263 35.376 127.279 35.376ZM127.231 27.408C128.191 27.408 128.951 27.088 129.511 26.448C130.087 25.792 130.375 24.864 130.375 23.664C130.375 22.464 130.087 21.544 129.511 20.904C128.951 20.264 128.191 19.944 127.231 19.944C126.255 19.944 125.479 20.264 124.903 20.904C124.327 21.544 124.039 22.464 124.039 23.664C124.039 24.864 124.327 25.792 124.903 26.448C125.479 27.088 126.255 27.408 127.231 27.408ZM141.273 30.24C140.217 30.24 139.289 29.992 138.489 29.496C137.689 28.984 137.065 28.256 136.617 27.312C136.169 26.368 135.945 25.24 135.945 23.928C135.945 22.616 136.169 21.496 136.617 20.568C137.065 19.624 137.689 18.904 138.489 18.408C139.289 17.896 140.217 17.64 141.273 17.64C142.297 17.64 143.193 17.896 143.961 18.408C144.745 18.904 145.265 19.576 145.521 20.424H145.257L145.521 17.88H148.401C148.353 18.376 148.305 18.88 148.257 19.392C148.225 19.904 148.209 20.408 148.209 20.904V30H145.233L145.209 27.504H145.497C145.241 28.336 144.721 29 143.937 29.496C143.153 29.992 142.265 30.24 141.273 30.24ZM142.113 27.936C143.057 27.936 143.817 27.608 144.393 26.952C144.969 26.28 145.257 25.272 145.257 23.928C145.257 22.584 144.969 21.584 144.393 20.928C143.817 20.272 143.057 19.944 142.113 19.944C141.169 19.944 140.409 20.272 139.833 20.928C139.257 21.584 138.969 22.584 138.969 23.928C138.969 25.272 139.249 26.28 139.809 26.952C140.385 27.608 141.153 27.936 142.113 27.936ZM151.452 30V20.976C151.452 20.464 151.436 19.944 151.404 19.416C151.388 18.888 151.348 18.376 151.284 17.88H154.188L154.524 21.192H154.044C154.204 20.392 154.468 19.728 154.836 19.2C155.22 18.672 155.684 18.28 156.228 18.024C156.772 17.768 157.364 17.64 158.004 17.64C158.292 17.64 158.524 17.656 158.7 17.688C158.876 17.704 159.052 17.744 159.228 17.808L159.204 20.448C158.9 20.32 158.636 20.24 158.412 20.208C158.204 20.176 157.94 20.16 157.62 20.16C156.932 20.16 156.348 20.304 155.868 20.592C155.404 20.88 155.052 21.28 154.812 21.792C154.588 22.304 154.476 22.888 154.476 23.544V30H151.452Z"/>
</mask>
<path d="M58.856 30V15.624H53.264V13.08H67.544V15.624H61.952V30H58.856ZM67.5924 30V20.976C67.5924 20.464 67.5764 19.944 67.5444 19.416C67.5284 18.888 67.4884 18.376 67.4244 17.88H70.3284L70.6644 21.192H70.1844C70.3444 20.392 70.6084 19.728 70.9764 19.2C71.3604 18.672 71.8244 18.28 72.3684 18.024C72.9124 17.768 73.5044 17.64 74.1444 17.64C74.4324 17.64 74.6644 17.656 74.8404 17.688C75.0164 17.704 75.1924 17.744 75.3684 17.808L75.3444 20.448C75.0404 20.32 74.7764 20.24 74.5524 20.208C74.3444 20.176 74.0804 20.16 73.7604 20.16C73.0724 20.16 72.4884 20.304 72.0084 20.592C71.5444 20.88 71.1924 21.28 70.9524 21.792C70.7284 22.304 70.6164 22.888 70.6164 23.544V30H67.5924ZM81.6011 30.24C80.5451 30.24 79.6171 29.992 78.8171 29.496C78.0171 28.984 77.3931 28.256 76.9451 27.312C76.4971 26.368 76.2731 25.24 76.2731 23.928C76.2731 22.616 76.4971 21.496 76.9451 20.568C77.3931 19.624 78.0171 18.904 78.8171 18.408C79.6171 17.896 80.5451 17.64 81.6011 17.64C82.6251 17.64 83.5211 17.896 84.2891 18.408C85.0731 18.904 85.5931 19.576 85.8491 20.424H85.5851L85.8491 17.88H88.7291C88.6811 18.376 88.6331 18.88 88.5851 19.392C88.5531 19.904 88.5371 20.408 88.5371 20.904V30H85.5611L85.5371 27.504H85.8251C85.5691 28.336 85.0491 29 84.2651 29.496C83.4811 29.992 82.5931 30.24 81.6011 30.24ZM82.4411 27.936C83.3851 27.936 84.1451 27.608 84.7211 26.952C85.2971 26.28 85.5851 25.272 85.5851 23.928C85.5851 22.584 85.2971 21.584 84.7211 20.928C84.1451 20.272 83.3851 19.944 82.4411 19.944C81.4971 19.944 80.7371 20.272 80.1611 20.928C79.5851 21.584 79.2971 22.584 79.2971 23.928C79.2971 25.272 79.5771 26.28 80.1371 26.952C80.7131 27.608 81.4811 27.936 82.4411 27.936ZM92.6199 30V20.136H90.2919V17.88H93.4599L92.6199 18.648V16.8C92.6199 15.296 93.0039 14.16 93.7719 13.392C94.5559 12.624 95.6999 12.24 97.2039 12.24C97.5559 12.24 97.9239 12.264 98.3079 12.312C98.7079 12.36 99.0519 12.448 99.3399 12.576V14.928C99.1319 14.848 98.8839 14.784 98.5959 14.736C98.3079 14.688 98.0279 14.664 97.7559 14.664C97.3399 14.664 96.9639 14.744 96.6279 14.904C96.3079 15.064 96.0519 15.312 95.8599 15.648C95.6839 15.968 95.5959 16.4 95.5959 16.944V18.408L95.1639 17.88H98.7879V20.136H95.6199V30H92.6199ZM105.203 30.24C104.147 30.24 103.219 29.992 102.419 29.496C101.619 28.984 100.995 28.256 100.547 27.312C100.099 26.368 99.8746 25.24 99.8746 23.928C99.8746 22.616 100.099 21.496 100.547 20.568C100.995 19.624 101.619 18.904 102.419 18.408C103.219 17.896 104.147 17.64 105.203 17.64C106.227 17.64 107.123 17.896 107.891 18.408C108.675 18.904 109.195 19.576 109.451 20.424H109.187L109.451 17.88H112.331C112.283 18.376 112.235 18.88 112.187 19.392C112.155 19.904 112.139 20.408 112.139 20.904V30H109.163L109.139 27.504H109.427C109.171 28.336 108.651 29 107.867 29.496C107.083 29.992 106.195 30.24 105.203 30.24ZM106.043 27.936C106.987 27.936 107.747 27.608 108.323 26.952C108.899 26.28 109.187 25.272 109.187 23.928C109.187 22.584 108.899 21.584 108.323 20.928C107.747 20.272 106.987 19.944 106.043 19.944C105.099 19.944 104.339 20.272 103.763 20.928C103.187 21.584 102.899 22.584 102.899 23.928C102.899 25.272 103.179 26.28 103.739 26.952C104.315 27.608 105.083 27.936 106.043 27.936ZM115.405 30V12.336H118.405V30H115.405ZM127.279 35.376C126.159 35.376 125.143 35.256 124.231 35.016C123.335 34.776 122.535 34.408 121.831 33.912L122.479 31.752C122.943 32.056 123.423 32.304 123.919 32.496C124.415 32.688 124.927 32.832 125.455 32.928C125.983 33.024 126.519 33.072 127.063 33.072C128.183 33.072 129.015 32.792 129.559 32.232C130.119 31.688 130.399 30.904 130.399 29.88V26.976H130.639C130.383 27.808 129.863 28.472 129.079 28.968C128.311 29.464 127.423 29.712 126.415 29.712C125.327 29.712 124.375 29.472 123.559 28.992C122.759 28.496 122.135 27.792 121.687 26.88C121.239 25.968 121.015 24.896 121.015 23.664C121.015 22.432 121.239 21.368 121.687 20.472C122.135 19.56 122.759 18.864 123.559 18.384C124.375 17.888 125.327 17.64 126.415 17.64C127.439 17.64 128.327 17.888 129.079 18.384C129.847 18.864 130.359 19.52 130.615 20.352L130.399 20.208L130.639 17.88H133.543C133.479 18.376 133.431 18.88 133.399 19.392C133.367 19.904 133.351 20.408 133.351 20.904V29.52C133.351 31.424 132.831 32.872 131.791 33.864C130.767 34.872 129.263 35.376 127.279 35.376ZM127.231 27.408C128.191 27.408 128.951 27.088 129.511 26.448C130.087 25.792 130.375 24.864 130.375 23.664C130.375 22.464 130.087 21.544 129.511 20.904C128.951 20.264 128.191 19.944 127.231 19.944C126.255 19.944 125.479 20.264 124.903 20.904C124.327 21.544 124.039 22.464 124.039 23.664C124.039 24.864 124.327 25.792 124.903 26.448C125.479 27.088 126.255 27.408 127.231 27.408ZM141.273 30.24C140.217 30.24 139.289 29.992 138.489 29.496C137.689 28.984 137.065 28.256 136.617 27.312C136.169 26.368 135.945 25.24 135.945 23.928C135.945 22.616 136.169 21.496 136.617 20.568C137.065 19.624 137.689 18.904 138.489 18.408C139.289 17.896 140.217 17.64 141.273 17.64C142.297 17.64 143.193 17.896 143.961 18.408C144.745 18.904 145.265 19.576 145.521 20.424H145.257L145.521 17.88H148.401C148.353 18.376 148.305 18.88 148.257 19.392C148.225 19.904 148.209 20.408 148.209 20.904V30H145.233L145.209 27.504H145.497C145.241 28.336 144.721 29 143.937 29.496C143.153 29.992 142.265 30.24 141.273 30.24ZM142.113 27.936C143.057 27.936 143.817 27.608 144.393 26.952C144.969 26.28 145.257 25.272 145.257 23.928C145.257 22.584 144.969 21.584 144.393 20.928C143.817 20.272 143.057 19.944 142.113 19.944C141.169 19.944 140.409 20.272 139.833 20.928C139.257 21.584 138.969 22.584 138.969 23.928C138.969 25.272 139.249 26.28 139.809 26.952C140.385 27.608 141.153 27.936 142.113 27.936ZM151.452 30V20.976C151.452 20.464 151.436 19.944 151.404 19.416C151.388 18.888 151.348 18.376 151.284 17.88H154.188L154.524 21.192H154.044C154.204 20.392 154.468 19.728 154.836 19.2C155.22 18.672 155.684 18.28 156.228 18.024C156.772 17.768 157.364 17.64 158.004 17.64C158.292 17.64 158.524 17.656 158.7 17.688C158.876 17.704 159.052 17.744 159.228 17.808L159.204 20.448C158.9 20.32 158.636 20.24 158.412 20.208C158.204 20.176 157.94 20.16 157.62 20.16C156.932 20.16 156.348 20.304 155.868 20.592C155.404 20.88 155.052 21.28 154.812 21.792C154.588 22.304 154.476 22.888 154.476 23.544V30H151.452Z" fill="#1E44F2" fill-opacity="0.96"/>
<path d="M58.856 30H57.856V31H58.856V30ZM58.856 15.624H59.856V14.624H58.856V15.624ZM53.264 15.624H52.264V16.624H53.264V15.624ZM53.264 13.08V12.08H52.264V13.08H53.264ZM67.544 13.08H68.544V12.08H67.544V13.08ZM67.544 15.624V16.624H68.544V15.624H67.544ZM61.952 15.624V14.624H60.952V15.624H61.952ZM61.952 30V31H62.952V30H61.952ZM59.856 30V15.624H57.856V30H59.856ZM58.856 14.624H53.264V16.624H58.856V14.624ZM54.264 15.624V13.08H52.264V15.624H54.264ZM53.264 14.08H67.544V12.08H53.264V14.08ZM66.544 13.08V15.624H68.544V13.08H66.544ZM67.544 14.624H61.952V16.624H67.544V14.624ZM60.952 15.624V30H62.952V15.624H60.952ZM61.952 29H58.856V31H61.952V29ZM67.5924 30H66.5924V31H67.5924V30ZM67.5444 19.416L66.5448 19.4463L66.5453 19.4614L66.5462 19.4765L67.5444 19.416ZM67.4244 17.88V16.88H66.2871L66.4326 18.008L67.4244 17.88ZM70.3284 17.88L71.3233 17.7791L71.2321 16.88H70.3284V17.88ZM70.6644 21.192V22.192H71.771L71.6593 21.0911L70.6644 21.192ZM70.1844 21.192L69.2038 20.9959L68.9646 22.192H70.1844V21.192ZM70.9764 19.2L70.1676 18.6118L70.1617 18.62L70.156 18.6282L70.9764 19.2ZM72.3684 18.024L72.7942 18.9288L72.7942 18.9288L72.3684 18.024ZM74.8404 17.688L74.6615 18.6719L74.7054 18.6799L74.7498 18.6839L74.8404 17.688ZM75.3684 17.808L76.3683 17.8171L76.3748 17.1099L75.7101 16.8682L75.3684 17.808ZM75.3444 20.448L74.9563 21.3696L76.3308 21.9484L76.3443 20.4571L75.3444 20.448ZM74.5524 20.208L74.4003 21.1964L74.411 21.1979L74.5524 20.208ZM72.0084 20.592L71.4939 19.7345L71.4874 19.7384L71.481 19.7424L72.0084 20.592ZM70.9524 21.792L70.0469 21.3676L70.0414 21.3793L70.0362 21.3912L70.9524 21.792ZM70.6164 30V31H71.6164V30H70.6164ZM68.5924 30V20.976H66.5924V30H68.5924ZM68.5924 20.976C68.5924 20.4432 68.5757 19.903 68.5425 19.3555L66.5462 19.4765C66.577 19.985 66.5924 20.4848 66.5924 20.976H68.5924ZM68.5439 19.3857C68.527 18.8269 68.4846 18.2822 68.4162 17.752L66.4326 18.008C66.4922 18.4698 66.5298 18.9491 66.5448 19.4463L68.5439 19.3857ZM67.4244 18.88H70.3284V16.88H67.4244V18.88ZM69.3335 17.9809L69.6695 21.2929L71.6593 21.0911L71.3233 17.7791L69.3335 17.9809ZM70.6644 20.192H70.1844V22.192H70.6644V20.192ZM71.165 21.3881C71.3049 20.6882 71.5255 20.161 71.7968 19.7718L70.156 18.6282C69.6913 19.295 69.3838 20.0958 69.2038 20.9959L71.165 21.3881ZM71.7851 19.7882C72.0789 19.3843 72.4153 19.1071 72.7942 18.9288L71.9426 17.1192C71.2334 17.4529 70.6419 17.9597 70.1676 18.6118L71.7851 19.7882ZM72.7942 18.9288C73.1965 18.7395 73.6419 18.64 74.1444 18.64V16.64C73.3669 16.64 72.6283 16.7965 71.9426 17.1192L72.7942 18.9288ZM74.1444 18.64C74.4039 18.64 74.569 18.6551 74.6615 18.6719L75.0193 16.7041C74.7597 16.6569 74.4609 16.64 74.1444 16.64V18.64ZM74.7498 18.6839C74.8351 18.6916 74.9268 18.7115 75.0266 18.7478L75.7101 16.8682C75.458 16.7765 75.1977 16.7164 74.9309 16.6921L74.7498 18.6839ZM74.3684 17.7989L74.3444 20.4389L76.3443 20.4571L76.3683 17.8171L74.3684 17.7989ZM75.7324 19.5264C75.382 19.3788 75.0316 19.2663 74.6938 19.2181L74.411 21.1979C74.5212 21.2137 74.6987 21.2612 74.9563 21.3696L75.7324 19.5264ZM74.7044 19.2196C74.4274 19.177 74.108 19.16 73.7604 19.16V21.16C74.0528 21.16 74.2614 21.175 74.4003 21.1964L74.7044 19.2196ZM73.7604 19.16C72.9325 19.16 72.1613 19.334 71.4939 19.7345L72.5229 21.4495C72.8154 21.274 73.2122 21.16 73.7604 21.16V19.16ZM71.481 19.7424C70.8464 20.1362 70.366 20.6868 70.0469 21.3676L71.8578 22.2164C72.0187 21.8732 72.2423 21.6238 72.5357 21.4416L71.481 19.7424ZM70.0362 21.3912C69.7482 22.0496 69.6164 22.7737 69.6164 23.544H71.6164C71.6164 23.0023 71.7086 22.5584 71.8685 22.1928L70.0362 21.3912ZM69.6164 23.544V30H71.6164V23.544H69.6164ZM70.6164 29H67.5924V31H70.6164V29ZM78.8171 29.496L78.278 30.3383L78.284 30.3421L78.2901 30.3459L78.8171 29.496ZM76.9451 27.312L77.8485 26.8833L77.8485 26.8833L76.9451 27.312ZM76.9451 20.568L77.8456 21.0028L77.8485 20.9967L76.9451 20.568ZM78.8171 18.408L79.344 19.2579L79.3501 19.2541L79.3561 19.2503L78.8171 18.408ZM84.2891 18.408L83.7344 19.24L83.7443 19.2467L83.7544 19.2531L84.2891 18.408ZM85.8491 20.424V21.424H87.1955L86.8064 20.135L85.8491 20.424ZM85.5851 20.424L84.5904 20.3208L84.4759 21.424H85.5851V20.424ZM85.8491 17.88V16.88H84.9475L84.8544 17.7768L85.8491 17.88ZM88.7291 17.88L89.7244 17.9763L89.8305 16.88H88.7291V17.88ZM88.5851 19.392L87.5894 19.2987L87.588 19.3141L87.587 19.3296L88.5851 19.392ZM88.5371 30V31H89.5371V30H88.5371ZM85.5611 30L84.5611 30.0096L84.5706 31H85.5611V30ZM85.5371 27.504V26.504H84.5274L84.5371 27.5136L85.5371 27.504ZM85.8251 27.504L86.7808 27.7981L87.179 26.504H85.8251V27.504ZM84.2651 29.496L83.7304 28.6509L83.7304 28.6509L84.2651 29.496ZM84.7211 26.952L85.4726 27.6118L85.4803 27.6028L84.7211 26.952ZM84.7211 20.928L83.9696 21.5878L83.9696 21.5878L84.7211 20.928ZM80.1371 26.952L79.3688 27.5922L79.3771 27.6021L79.3856 27.6118L80.1371 26.952ZM81.6011 29.24C80.7079 29.24 79.967 29.0324 79.344 28.6461L78.2901 30.3459C79.2671 30.9516 80.3822 31.24 81.6011 31.24V29.24ZM79.3561 28.6537C78.7295 28.2527 78.2245 27.6755 77.8485 26.8833L76.0416 27.7407C76.5616 28.8365 77.3046 29.7153 78.278 30.3383L79.3561 28.6537ZM77.8485 26.8833C77.4782 26.103 77.2731 25.1285 77.2731 23.928H75.2731C75.2731 25.3515 75.5159 26.633 76.0416 27.7407L77.8485 26.8833ZM77.2731 23.928C77.2731 22.7267 77.4784 21.7634 77.8456 21.0027L76.0445 20.1333C75.5157 21.2286 75.2731 22.5053 75.2731 23.928H77.2731ZM77.8485 20.9967C78.2235 20.2066 78.725 19.6417 79.344 19.2579L78.2901 17.5581C77.3091 18.1663 76.5627 19.0414 76.0416 20.1393L77.8485 20.9967ZM79.3561 19.2503C79.9775 18.8526 80.714 18.64 81.6011 18.64V16.64C80.3761 16.64 79.2566 16.9394 78.278 17.5657L79.3561 19.2503ZM81.6011 18.64C82.4501 18.64 83.1484 18.8494 83.7344 19.24L84.8438 17.5759C83.8938 16.9426 82.8 16.64 81.6011 16.64V18.64ZM83.7544 19.2531C84.3457 19.6272 84.7087 20.1067 84.8917 20.713L86.8064 20.135C86.4774 19.0453 85.8004 18.1808 84.8237 17.5629L83.7544 19.2531ZM85.8491 19.424H85.5851V21.424H85.8491V19.424ZM86.5797 20.5272L86.8437 17.9832L84.8544 17.7768L84.5904 20.3208L86.5797 20.5272ZM85.8491 18.88H88.7291V16.88H85.8491V18.88ZM87.7337 17.7837C87.6856 18.2807 87.6375 18.7857 87.5894 19.2987L89.5807 19.4853C89.6286 18.9743 89.6765 18.4713 89.7244 17.9763L87.7337 17.7837ZM87.587 19.3296C87.5538 19.8617 87.5371 20.3865 87.5371 20.904H89.5371C89.5371 20.4295 89.5524 19.9463 89.5831 19.4544L87.587 19.3296ZM87.5371 20.904V30H89.5371V20.904H87.5371ZM88.5371 29H85.5611V31H88.5371V29ZM86.561 29.9904L86.537 27.4944L84.5371 27.5136L84.5611 30.0096L86.561 29.9904ZM85.5371 28.504H85.8251V26.504H85.5371V28.504ZM84.8693 27.2099C84.6883 27.7982 84.3272 28.2734 83.7304 28.6509L84.7997 30.3411C85.771 29.7266 86.4498 28.8738 86.7808 27.7981L84.8693 27.2099ZM83.7304 28.6509C83.1176 29.0386 82.4175 29.24 81.6011 29.24V31.24C82.7687 31.24 83.8446 30.9454 84.7997 30.3411L83.7304 28.6509ZM82.4411 28.936C83.6464 28.936 84.6899 28.5031 85.4725 27.6118L83.9696 26.2922C83.6002 26.7129 83.1237 26.936 82.4411 26.936V28.936ZM85.4803 27.6028C86.2747 26.676 86.5851 25.3917 86.5851 23.928H84.5851C84.5851 25.1523 84.3194 25.884 83.9618 26.3012L85.4803 27.6028ZM86.5851 23.928C86.5851 22.4669 86.2758 21.183 85.4725 20.2682L83.9696 21.5878C84.3184 21.985 84.5851 22.7011 84.5851 23.928H86.5851ZM85.4725 20.2682C84.6899 19.3769 83.6464 18.944 82.4411 18.944V20.944C83.1237 20.944 83.6002 21.1671 83.9696 21.5878L85.4725 20.2682ZM82.4411 18.944C81.2357 18.944 80.1922 19.3769 79.4096 20.2682L80.9125 21.5878C81.2819 21.1671 81.7584 20.944 82.4411 20.944V18.944ZM79.4096 20.2682C78.6064 21.183 78.2971 22.4669 78.2971 23.928H80.2971C80.2971 22.7011 80.5638 21.985 80.9125 21.5878L79.4096 20.2682ZM78.2971 23.928C78.2971 25.3862 78.5971 26.6661 79.3688 27.5922L80.9053 26.3118C80.557 25.8939 80.2971 25.1578 80.2971 23.928H78.2971ZM79.3856 27.6118C80.1717 28.5071 81.2255 28.936 82.4411 28.936V26.936C81.7366 26.936 81.2544 26.7089 80.8885 26.2922L79.3856 27.6118ZM92.6199 30H91.6199V31H92.6199V30ZM92.6199 20.136H93.6199V19.136H92.6199V20.136ZM90.2919 20.136H89.2919V21.136H90.2919V20.136ZM90.2919 17.88V16.88H89.2919V17.88H90.2919ZM93.4599 17.88L94.1346 18.618L96.0356 16.88H93.4599V17.88ZM92.6199 18.648H91.6199V20.9172L93.2946 19.386L92.6199 18.648ZM93.7719 13.392L93.0721 12.6776L93.0648 12.6849L93.7719 13.392ZM98.3079 12.312L98.1838 13.3043L98.1887 13.3049L98.3079 12.312ZM99.3399 12.576H100.34V11.9261L99.746 11.6622L99.3399 12.576ZM99.3399 14.928L98.9809 15.8613L100.34 16.384V14.928H99.3399ZM96.6279 14.904L96.1979 14.0011L96.1893 14.0053L96.1807 14.0096L96.6279 14.904ZM95.8599 15.648L94.9916 15.1519L94.9876 15.1589L94.9837 15.1661L95.8599 15.648ZM95.5959 18.408L94.8219 19.0412L96.5959 21.2094V18.408H95.5959ZM95.1639 17.88V16.88H93.0536L94.3899 18.5132L95.1639 17.88ZM98.7879 17.88H99.7879V16.88H98.7879V17.88ZM98.7879 20.136V21.136H99.7879V20.136H98.7879ZM95.6199 20.136V19.136H94.6199V20.136H95.6199ZM95.6199 30V31H96.6199V30H95.6199ZM93.6199 30V20.136H91.6199V30H93.6199ZM92.6199 19.136H90.2919V21.136H92.6199V19.136ZM91.2919 20.136V17.88H89.2919V20.136H91.2919ZM90.2919 18.88H93.4599V16.88H90.2919V18.88ZM92.7851 17.142L91.9451 17.91L93.2946 19.386L94.1346 18.618L92.7851 17.142ZM93.6199 18.648V16.8H91.6199V18.648H93.6199ZM93.6199 16.8C93.6199 15.4572 93.9611 14.617 94.479 14.0991L93.0648 12.6849C92.0467 13.703 91.6199 15.1348 91.6199 16.8H93.6199ZM94.4717 14.1064C95.0084 13.5806 95.8627 13.24 97.2039 13.24V11.24C95.5371 11.24 94.1034 11.6674 93.0721 12.6776L94.4717 14.1064ZM97.2039 13.24C97.5106 13.24 97.837 13.2609 98.1838 13.3043L98.4319 11.3197C98.0108 11.2671 97.6012 11.24 97.2039 11.24V13.24ZM98.1887 13.3049C98.5158 13.3441 98.7582 13.4118 98.9337 13.4898L99.746 11.6622C99.3456 11.4842 98.9 11.3759 98.427 11.3191L98.1887 13.3049ZM98.3399 12.576V14.928H100.34V12.576H98.3399ZM99.6989 13.9947C99.4121 13.8844 99.0956 13.8055 98.7603 13.7496L98.4315 15.7224C98.6722 15.7625 98.8517 15.8116 98.9809 15.8613L99.6989 13.9947ZM98.7603 13.7496C98.4219 13.6932 98.0868 13.664 97.7559 13.664V15.664C97.9689 15.664 98.1939 15.6828 98.4315 15.7224L98.7603 13.7496ZM97.7559 13.664C97.2088 13.664 96.6833 13.77 96.1979 14.0011L97.0578 15.8069C97.2444 15.718 97.471 15.664 97.7559 15.664V13.664ZM96.1807 14.0096C95.6696 14.2651 95.2732 14.6591 94.9916 15.1519L96.7281 16.1441C96.8305 15.9649 96.9462 15.8629 97.0751 15.7984L96.1807 14.0096ZM94.9837 15.1661C94.6963 15.6886 94.5959 16.3078 94.5959 16.944H96.5959C96.5959 16.4922 96.6715 16.2474 96.7361 16.1299L94.9837 15.1661ZM94.5959 16.944V18.408H96.5959V16.944H94.5959ZM96.3698 17.7748L95.9378 17.2468L94.3899 18.5132L94.8219 19.0412L96.3698 17.7748ZM95.1639 18.88H98.7879V16.88H95.1639V18.88ZM97.7879 17.88V20.136H99.7879V17.88H97.7879ZM98.7879 19.136H95.6199V21.136H98.7879V19.136ZM94.6199 20.136V30H96.6199V20.136H94.6199ZM95.6199 29H92.6199V31H95.6199V29ZM102.419 29.496L101.88 30.3383L101.886 30.3421L101.892 30.3459L102.419 29.496ZM100.547 27.312L101.45 26.8833L101.45 26.8833L100.547 27.312ZM100.547 20.568L101.447 21.0028L101.45 20.9967L100.547 20.568ZM102.419 18.408L102.946 19.2579L102.952 19.2541L102.958 19.2503L102.419 18.408ZM107.891 18.408L107.336 19.24L107.346 19.2467L107.356 19.2531L107.891 18.408ZM109.451 20.424V21.424H110.797L110.408 20.135L109.451 20.424ZM109.187 20.424L108.192 20.3208L108.077 21.424H109.187V20.424ZM109.451 17.88V16.88H108.549L108.456 17.7768L109.451 17.88ZM112.331 17.88L113.326 17.9763L113.432 16.88H112.331V17.88ZM112.187 19.392L111.191 19.2987L111.19 19.3141L111.189 19.3296L112.187 19.392ZM112.139 30V31H113.139V30H112.139ZM109.163 30L108.163 30.0096L108.172 31H109.163V30ZM109.139 27.504V26.504H108.129L108.139 27.5136L109.139 27.504ZM109.427 27.504L110.382 27.7981L110.781 26.504H109.427V27.504ZM107.867 29.496L107.332 28.6509L107.332 28.6509L107.867 29.496ZM108.323 26.952L109.074 27.6118L109.082 27.6028L108.323 26.952ZM108.323 20.928L107.571 21.5878L107.571 21.5878L108.323 20.928ZM103.739 26.952L102.97 27.5922L102.979 27.6021L102.987 27.6118L103.739 26.952ZM105.203 29.24C104.309 29.24 103.569 29.0324 102.946 28.6461L101.892 30.3459C102.869 30.9516 103.984 31.24 105.203 31.24V29.24ZM102.958 28.6537C102.331 28.2527 101.826 27.6755 101.45 26.8833L99.6432 27.7407C100.163 28.8365 100.906 29.7153 101.88 30.3383L102.958 28.6537ZM101.45 26.8833C101.08 26.103 100.875 25.1285 100.875 23.928H98.8746C98.8746 25.3515 99.1175 26.633 99.6432 27.7407L101.45 26.8833ZM100.875 23.928C100.875 22.7267 101.08 21.7634 101.447 21.0027L99.6461 20.1333C99.1173 21.2286 98.8746 22.5053 98.8746 23.928H100.875ZM101.45 20.9967C101.825 20.2066 102.327 19.6417 102.946 19.2579L101.892 17.5581C100.911 18.1663 100.164 19.0414 99.6432 20.1393L101.45 20.9967ZM102.958 19.2503C103.579 18.8526 104.316 18.64 105.203 18.64V16.64C103.978 16.64 102.858 16.9394 101.88 17.5657L102.958 19.2503ZM105.203 18.64C106.052 18.64 106.75 18.8494 107.336 19.24L108.445 17.5759C107.495 16.9426 106.402 16.64 105.203 16.64V18.64ZM107.356 19.2531C107.947 19.6272 108.31 20.1067 108.493 20.713L110.408 20.135C110.079 19.0453 109.402 18.1808 108.425 17.5629L107.356 19.2531ZM109.451 19.424H109.187V21.424H109.451V19.424ZM110.181 20.5272L110.445 17.9832L108.456 17.7768L108.192 20.3208L110.181 20.5272ZM109.451 18.88H112.331V16.88H109.451V18.88ZM111.335 17.7837C111.287 18.2807 111.239 18.7857 111.191 19.2987L113.182 19.4853C113.23 18.9743 113.278 18.4713 113.326 17.9763L111.335 17.7837ZM111.189 19.3296C111.155 19.8617 111.139 20.3865 111.139 20.904H113.139C113.139 20.4295 113.154 19.9463 113.185 19.4544L111.189 19.3296ZM111.139 20.904V30H113.139V20.904H111.139ZM112.139 29H109.163V31H112.139V29ZM110.163 29.9904L110.139 27.4944L108.139 27.5136L108.163 30.0096L110.163 29.9904ZM109.139 28.504H109.427V26.504H109.139V28.504ZM108.471 27.2099C108.29 27.7982 107.929 28.2734 107.332 28.6509L108.401 30.3411C109.373 29.7266 110.051 28.8738 110.382 27.7981L108.471 27.2099ZM107.332 28.6509C106.719 29.0386 106.019 29.24 105.203 29.24V31.24C106.37 31.24 107.446 30.9454 108.401 30.3411L107.332 28.6509ZM106.043 28.936C107.248 28.936 108.291 28.5031 109.074 27.6118L107.571 26.2922C107.202 26.7129 106.725 26.936 106.043 26.936V28.936ZM109.082 27.6028C109.876 26.676 110.187 25.3917 110.187 23.928H108.187C108.187 25.1523 107.921 25.884 107.563 26.3012L109.082 27.6028ZM110.187 23.928C110.187 22.4669 109.877 21.183 109.074 20.2682L107.571 21.5878C107.92 21.985 108.187 22.7011 108.187 23.928H110.187ZM109.074 20.2682C108.291 19.3769 107.248 18.944 106.043 18.944V20.944C106.725 20.944 107.202 21.1671 107.571 21.5878L109.074 20.2682ZM106.043 18.944C104.837 18.944 103.794 19.3769 103.011 20.2682L104.514 21.5878C104.883 21.1671 105.36 20.944 106.043 20.944V18.944ZM103.011 20.2682C102.208 21.183 101.899 22.4669 101.899 23.928H103.899C103.899 22.7011 104.165 21.985 104.514 21.5878L103.011 20.2682ZM101.899 23.928C101.899 25.3862 102.199 26.6661 102.97 27.5922L104.507 26.3118C104.159 25.8939 103.899 25.1578 103.899 23.928H101.899ZM102.987 27.6118C103.773 28.5071 104.827 28.936 106.043 28.936V26.936C105.338 26.936 104.856 26.7089 104.49 26.2922L102.987 27.6118ZM115.405 30H114.405V31H115.405V30ZM115.405 12.336V11.336H114.405V12.336H115.405ZM118.405 12.336H119.405V11.336H118.405V12.336ZM118.405 30V31H119.405V30H118.405ZM116.405 30V12.336H114.405V30H116.405ZM115.405 13.336H118.405V11.336H115.405V13.336ZM117.405 12.336V30H119.405V12.336H117.405ZM118.405 29H115.405V31H118.405V29ZM124.231 35.016L123.973 35.982L123.977 35.9831L124.231 35.016ZM121.831 33.912L120.873 33.6247L120.666 34.3146L121.255 34.7295L121.831 33.912ZM122.479 31.752L123.027 30.9155L121.906 30.1812L121.521 31.4647L122.479 31.752ZM123.919 32.496L124.28 31.5634L124.28 31.5634L123.919 32.496ZM125.455 32.928L125.276 33.9119L125.276 33.9119L125.455 32.928ZM129.559 32.232L128.862 31.5147L128.852 31.5248L128.842 31.5352L129.559 32.232ZM130.399 26.976V25.976H129.399V26.976H130.399ZM130.639 26.976L131.595 27.2701L131.993 25.976H130.639V26.976ZM129.079 28.968L128.545 28.1229L128.537 28.128L129.079 28.968ZM123.559 28.992L123.032 29.8419L123.042 29.848L123.052 29.8539L123.559 28.992ZM121.687 26.88L122.585 26.4391L122.585 26.4391L121.687 26.88ZM121.687 20.472L122.582 20.9192L122.585 20.9129L121.687 20.472ZM123.559 18.384L124.074 19.2415L124.079 19.2385L123.559 18.384ZM129.079 18.384L128.529 19.2188L128.539 19.2255L128.549 19.232L129.079 18.384ZM130.615 20.352L130.061 21.184L132.397 22.7415L131.571 20.0579L130.615 20.352ZM130.399 20.208L129.405 20.1054L129.343 20.7055L129.845 21.04L130.399 20.208ZM130.639 17.88V16.88H129.737L129.645 17.7775L130.639 17.88ZM133.543 17.88L134.535 18.008L134.681 16.88H133.543V17.88ZM133.399 19.392L134.397 19.4544L134.397 19.4544L133.399 19.392ZM131.791 33.864L131.101 33.1404L131.095 33.1458L131.09 33.1513L131.791 33.864ZM129.511 26.448L128.76 25.7882L128.759 25.7895L129.511 26.448ZM129.511 20.904L128.759 21.5626L128.768 21.573L129.511 20.904ZM124.903 20.904L125.647 21.573L125.647 21.573L124.903 20.904ZM124.903 26.448L124.152 27.1079L124.16 27.117L124.903 26.448ZM127.279 34.376C126.23 34.376 125.301 34.2634 124.486 34.0489L123.977 35.9831C124.986 36.2486 126.089 36.376 127.279 36.376V34.376ZM124.49 34.0501C123.699 33.8381 123.008 33.5177 122.407 33.0945L121.255 34.7295C122.063 35.2983 122.972 35.7139 123.973 35.9819L124.49 34.0501ZM122.789 34.1993L123.437 32.0393L121.521 31.4647L120.873 33.6247L122.789 34.1993ZM121.931 32.5885C122.451 32.9293 122.994 33.2101 123.558 33.4286L124.28 31.5634C123.853 31.3979 123.435 31.1827 123.027 30.9155L121.931 32.5885ZM123.558 33.4286C124.114 33.6436 124.687 33.8047 125.276 33.9119L125.634 31.9441C125.168 31.8593 124.717 31.7324 124.28 31.5634L123.558 33.4286ZM125.276 33.9119C125.864 34.0187 126.46 34.072 127.063 34.072V32.072C126.578 32.072 126.102 32.0293 125.634 31.9441L125.276 33.9119ZM127.063 34.072C128.335 34.072 129.475 33.7538 130.277 32.9288L128.842 31.5352C128.555 31.8302 128.032 32.072 127.063 32.072V34.072ZM130.256 32.9493C131.065 32.1635 131.399 31.0863 131.399 29.88H129.399C129.399 30.7217 129.174 31.2125 128.862 31.5147L130.256 32.9493ZM131.399 29.88V26.976H129.399V29.88H131.399ZM130.399 27.976H130.639V25.976H130.399V27.976ZM129.683 26.6819C129.502 27.2702 129.141 27.7454 128.545 28.1229L129.614 29.8131C130.585 29.1986 131.264 28.3458 131.595 27.2701L129.683 26.6819ZM128.537 28.128C127.947 28.509 127.251 28.712 126.415 28.712V30.712C127.595 30.712 128.676 30.419 129.622 29.808L128.537 28.128ZM126.415 28.712C125.479 28.712 124.707 28.5069 124.066 28.1301L123.052 29.8539C124.044 30.4371 125.176 30.712 126.415 30.712V28.712ZM124.086 28.1421C123.458 27.7528 122.957 27.1966 122.585 26.4391L120.79 27.3209C121.314 28.3874 122.06 29.2392 123.032 29.8419L124.086 28.1421ZM122.585 26.4391C122.217 25.6904 122.015 24.7751 122.015 23.664H120.015C120.015 25.0169 120.261 26.2456 120.79 27.3209L122.585 26.4391ZM122.015 23.664C122.015 22.5522 122.217 21.6481 122.582 20.9192L120.793 20.0248C120.261 21.0879 120.015 22.3118 120.015 23.664H122.015ZM122.585 20.9129C122.956 20.1577 123.454 19.6136 124.074 19.2415L123.045 17.5265C122.065 18.1144 121.315 18.9623 120.79 20.0311L122.585 20.9129ZM124.079 19.2385C124.717 18.8504 125.484 18.64 126.415 18.64V16.64C125.17 16.64 124.033 16.9256 123.04 17.5295L124.079 19.2385ZM126.415 18.64C127.271 18.64 127.962 18.8448 128.529 19.2188L129.63 17.5492C128.693 16.9312 127.607 16.64 126.415 16.64V18.64ZM128.549 19.232C129.122 19.5902 129.477 20.0538 129.659 20.6461L131.571 20.0579C131.241 18.9862 130.572 18.1378 129.609 17.536L128.549 19.232ZM131.17 19.5199L130.954 19.3759L129.845 21.04L130.061 21.184L131.17 19.5199ZM131.394 20.3105L131.634 17.9825L129.645 17.7775L129.405 20.1054L131.394 20.3105ZM130.639 18.88H133.543V16.88H130.639V18.88ZM132.551 17.752C132.485 18.2704 132.435 18.7963 132.401 19.3296L134.397 19.4544C134.428 18.9637 134.474 18.4816 134.535 18.008L132.551 17.752ZM132.401 19.3296C132.368 19.8617 132.351 20.3865 132.351 20.904H134.351C134.351 20.4295 134.367 19.9463 134.397 19.4544L132.401 19.3296ZM132.351 20.904V29.52H134.351V20.904H132.351ZM132.351 29.52C132.351 31.2432 131.885 32.3927 131.101 33.1404L132.481 34.5876C133.778 33.3513 134.351 31.6048 134.351 29.52H132.351ZM131.09 33.1513C130.315 33.9144 129.102 34.376 127.279 34.376V36.376C129.424 36.376 131.22 35.8296 132.493 34.5767L131.09 33.1513ZM127.231 28.408C128.438 28.408 129.488 27.9929 130.264 27.1065L128.759 25.7895C128.414 26.1831 127.944 26.408 127.231 26.408V28.408ZM130.263 27.1078C131.05 26.2108 131.375 25.0156 131.375 23.664H129.375C129.375 24.7124 129.124 25.3732 128.76 25.7882L130.263 27.1078ZM131.375 23.664C131.375 22.3143 131.051 21.12 130.255 20.235L128.768 21.573C129.123 21.968 129.375 22.6137 129.375 23.664H131.375ZM130.264 20.2455C129.488 19.3591 128.438 18.944 127.231 18.944V20.944C127.944 20.944 128.414 21.1689 128.759 21.5625L130.264 20.2455ZM127.231 18.944C126.014 18.944 124.952 19.355 124.16 20.235L125.647 21.573C126.007 21.173 126.497 20.944 127.231 20.944V18.944ZM124.16 20.235C123.363 21.12 123.039 22.3143 123.039 23.664H125.039C125.039 22.6137 125.291 21.968 125.647 21.573L124.16 20.235ZM123.039 23.664C123.039 25.0156 123.364 26.2108 124.152 27.1078L125.655 25.7882C125.29 25.3732 125.039 24.7124 125.039 23.664H123.039ZM124.16 27.117C124.952 27.997 126.014 28.408 127.231 28.408V26.408C126.497 26.408 126.007 26.179 125.647 25.779L124.16 27.117ZM138.489 29.496L137.95 30.3383L137.956 30.3421L137.962 30.3459L138.489 29.496ZM136.617 27.312L137.52 26.8833L137.52 26.8833L136.617 27.312ZM136.617 20.568L137.518 21.0028L137.52 20.9967L136.617 20.568ZM138.489 18.408L139.016 19.2579L139.022 19.2541L139.028 19.2503L138.489 18.408ZM143.961 18.408L143.406 19.24L143.416 19.2467L143.426 19.2531L143.961 18.408ZM145.521 20.424V21.424H146.867L146.478 20.135L145.521 20.424ZM145.257 20.424L144.262 20.3208L144.148 21.424H145.257V20.424ZM145.521 17.88V16.88H144.619L144.526 17.7768L145.521 17.88ZM148.401 17.88L149.396 17.9763L149.502 16.88H148.401V17.88ZM148.257 19.392L147.261 19.2987L147.26 19.3141L147.259 19.3296L148.257 19.392ZM148.209 30V31H149.209V30H148.209ZM145.233 30L144.233 30.0096L144.243 31H145.233V30ZM145.209 27.504V26.504H144.199L144.209 27.5136L145.209 27.504ZM145.497 27.504L146.453 27.7981L146.851 26.504H145.497V27.504ZM143.937 29.496L143.402 28.6509L143.402 28.6509L143.937 29.496ZM144.393 26.952L145.144 27.6118L145.152 27.6028L144.393 26.952ZM144.393 20.928L143.641 21.5878L143.641 21.5878L144.393 20.928ZM139.809 26.952L139.041 27.5922L139.049 27.6021L139.057 27.6118L139.809 26.952ZM141.273 29.24C140.38 29.24 139.639 29.0324 139.016 28.6461L137.962 30.3459C138.939 30.9516 140.054 31.24 141.273 31.24V29.24ZM139.028 28.6537C138.401 28.2527 137.896 27.6755 137.52 26.8833L135.714 27.7407C136.234 28.8365 136.977 29.7153 137.95 30.3383L139.028 28.6537ZM137.52 26.8833C137.15 26.103 136.945 25.1285 136.945 23.928H134.945C134.945 25.3515 135.188 26.633 135.714 27.7407L137.52 26.8833ZM136.945 23.928C136.945 22.7267 137.15 21.7634 137.517 21.0027L135.716 20.1333C135.188 21.2286 134.945 22.5053 134.945 23.928H136.945ZM137.52 20.9967C137.895 20.2066 138.397 19.6417 139.016 19.2579L137.962 17.5581C136.981 18.1663 136.235 19.0414 135.714 20.1393L137.52 20.9967ZM139.028 19.2503C139.649 18.8526 140.386 18.64 141.273 18.64V16.64C140.048 16.64 138.928 16.9394 137.95 17.5657L139.028 19.2503ZM141.273 18.64C142.122 18.64 142.82 18.8494 143.406 19.24L144.516 17.5759C143.566 16.9426 142.472 16.64 141.273 16.64V18.64ZM143.426 19.2531C144.018 19.6272 144.381 20.1067 144.564 20.713L146.478 20.135C146.149 19.0453 145.472 18.1808 144.496 17.5629L143.426 19.2531ZM145.521 19.424H145.257V21.424H145.521V19.424ZM146.252 20.5272L146.516 17.9832L144.526 17.7768L144.262 20.3208L146.252 20.5272ZM145.521 18.88H148.401V16.88H145.521V18.88ZM147.406 17.7837C147.357 18.2807 147.309 18.7857 147.261 19.2987L149.253 19.4853C149.3 18.9743 149.348 18.4713 149.396 17.9763L147.406 17.7837ZM147.259 19.3296C147.226 19.8617 147.209 20.3865 147.209 20.904H149.209C149.209 20.4295 149.224 19.9463 149.255 19.4544L147.259 19.3296ZM147.209 20.904V30H149.209V20.904H147.209ZM148.209 29H145.233V31H148.209V29ZM146.233 29.9904L146.209 27.4944L144.209 27.5136L144.233 30.0096L146.233 29.9904ZM145.209 28.504H145.497V26.504H145.209V28.504ZM144.541 27.2099C144.36 27.7982 143.999 28.2734 143.402 28.6509L144.472 30.3411C145.443 29.7266 146.122 28.8738 146.453 27.7981L144.541 27.2099ZM143.402 28.6509C142.789 29.0386 142.089 29.24 141.273 29.24V31.24C142.441 31.24 143.516 30.9454 144.472 30.3411L143.402 28.6509ZM142.113 28.936C143.318 28.936 144.362 28.5031 145.144 27.6118L143.641 26.2922C143.272 26.7129 142.796 26.936 142.113 26.936V28.936ZM145.152 27.6028C145.947 26.676 146.257 25.3917 146.257 23.928H144.257C144.257 25.1523 143.991 25.884 143.634 26.3012L145.152 27.6028ZM146.257 23.928C146.257 22.4669 145.948 21.183 145.144 20.2682L143.641 21.5878C143.99 21.985 144.257 22.7011 144.257 23.928H146.257ZM145.144 20.2682C144.362 19.3769 143.318 18.944 142.113 18.944V20.944C142.796 20.944 143.272 21.1671 143.641 21.5878L145.144 20.2682ZM142.113 18.944C140.908 18.944 139.864 19.3769 139.081 20.2682L140.584 21.5878C140.954 21.1671 141.43 20.944 142.113 20.944V18.944ZM139.081 20.2682C138.278 21.183 137.969 22.4669 137.969 23.928H139.969C139.969 22.7011 140.236 21.985 140.584 21.5878L139.081 20.2682ZM137.969 23.928C137.969 25.3862 138.269 26.6661 139.041 27.5922L140.577 26.3118C140.229 25.8939 139.969 25.1578 139.969 23.928H137.969ZM139.057 27.6118C139.844 28.5071 140.897 28.936 142.113 28.936V26.936C141.409 26.936 140.926 26.7089 140.56 26.2922L139.057 27.6118ZM151.452 30H150.452V31H151.452V30ZM151.404 19.416L150.404 19.4463L150.405 19.4614L150.406 19.4765L151.404 19.416ZM151.284 17.88V16.88H150.146L150.292 18.008L151.284 17.88ZM154.188 17.88L155.183 17.7791L155.091 16.88H154.188V17.88ZM154.524 21.192V22.192H155.63L155.519 21.0911L154.524 21.192ZM154.044 21.192L153.063 20.9959L152.824 22.192H154.044V21.192ZM154.836 19.2L154.027 18.6118L154.021 18.62L154.015 18.6282L154.836 19.2ZM156.228 18.024L156.654 18.9288L156.654 18.9288L156.228 18.024ZM158.7 17.688L158.521 18.6719L158.565 18.6799L158.609 18.6839L158.7 17.688ZM159.228 17.808L160.228 17.8171L160.234 17.1099L159.569 16.8682L159.228 17.808ZM159.204 20.448L158.816 21.3696L160.19 21.9484L160.204 20.4571L159.204 20.448ZM158.412 20.208L158.26 21.1964L158.27 21.1979L158.412 20.208ZM155.868 20.592L155.353 19.7345L155.347 19.7384L155.34 19.7424L155.868 20.592ZM154.812 21.792L153.906 21.3676L153.901 21.3793L153.896 21.3912L154.812 21.792ZM154.476 30V31H155.476V30H154.476ZM152.452 30V20.976H150.452V30H152.452ZM152.452 20.976C152.452 20.4432 152.435 19.903 152.402 19.3555L150.406 19.4765C150.436 19.985 150.452 20.4848 150.452 20.976H152.452ZM152.403 19.3857C152.386 18.8269 152.344 18.2822 152.276 17.752L150.292 18.008C150.352 18.4698 150.389 18.9491 150.404 19.4463L152.403 19.3857ZM151.284 18.88H154.188V16.88H151.284V18.88ZM153.193 17.9809L153.529 21.2929L155.519 21.0911L155.183 17.7791L153.193 17.9809ZM154.524 20.192H154.044V22.192H154.524V20.192ZM155.024 21.3881C155.164 20.6882 155.385 20.161 155.656 19.7718L154.015 18.6282C153.551 19.295 153.243 20.0958 153.063 20.9959L155.024 21.3881ZM155.644 19.7882C155.938 19.3843 156.275 19.1071 156.654 18.9288L155.802 17.1192C155.093 17.4529 154.501 17.9597 154.027 18.6118L155.644 19.7882ZM156.654 18.9288C157.056 18.7395 157.501 18.64 158.004 18.64V16.64C157.226 16.64 156.488 16.7965 155.802 17.1192L156.654 18.9288ZM158.004 18.64C158.263 18.64 158.428 18.6551 158.521 18.6719L158.879 16.7041C158.619 16.6569 158.32 16.64 158.004 16.64V18.64ZM158.609 18.6839C158.694 18.6916 158.786 18.7115 158.886 18.7478L159.569 16.8682C159.317 16.7765 159.057 16.7164 158.79 16.6921L158.609 18.6839ZM158.228 17.7989L158.204 20.4389L160.204 20.4571L160.228 17.8171L158.228 17.7989ZM159.592 19.5264C159.241 19.3788 158.891 19.2663 158.553 19.2181L158.27 21.1979C158.381 21.2137 158.558 21.2612 158.816 21.3696L159.592 19.5264ZM158.564 19.2196C158.287 19.177 157.967 19.16 157.62 19.16V21.16C157.912 21.16 158.121 21.175 158.26 21.1964L158.564 19.2196ZM157.62 19.16C156.792 19.16 156.021 19.334 155.353 19.7345L156.382 21.4495C156.675 21.274 157.072 21.16 157.62 21.16V19.16ZM155.34 19.7424C154.706 20.1362 154.225 20.6868 153.906 21.3676L155.717 22.2164C155.878 21.8732 156.102 21.6238 156.395 21.4416L155.34 19.7424ZM153.896 21.3912C153.608 22.0496 153.476 22.7737 153.476 23.544H155.476C155.476 23.0023 155.568 22.5584 155.728 22.1928L153.896 21.3912ZM153.476 23.544V30H155.476V23.544H153.476ZM154.476 29H151.452V31H154.476V29Z" fill="black" mask="url(#path-1-outside-1_63_287)"/>
<circle cx="20.5" cy="20.5" r="20" fill="#1E44F2" fill-opacity="0.96" stroke="black"/>
<mask id="path-4-outside-2_63_287" maskUnits="userSpaceOnUse" x="12" y="11" width="18" height="21" fill="black">
<rect fill="white" x="12" y="11" width="18" height="21"/>
<path d="M19.344 31V15.426H13.286V12.67H28.756V15.426H22.698V31H19.344Z"/>
</mask>
<path d="M19.344 31V15.426H13.286V12.67H28.756V15.426H22.698V31H19.344Z" fill="#1E44F2" fill-opacity="0.96"/>
<path d="M19.344 31H18.344V32H19.344V31ZM19.344 15.426H20.344V14.426H19.344V15.426ZM13.286 15.426H12.286V16.426H13.286V15.426ZM13.286 12.67V11.67H12.286V12.67H13.286ZM28.756 12.67H29.756V11.67H28.756V12.67ZM28.756 15.426V16.426H29.756V15.426H28.756ZM22.698 15.426V14.426H21.698V15.426H22.698ZM22.698 31V32H23.698V31H22.698ZM20.344 31V15.426H18.344V31H20.344ZM19.344 14.426H13.286V16.426H19.344V14.426ZM14.286 15.426V12.67H12.286V15.426H14.286ZM13.286 13.67H28.756V11.67H13.286V13.67ZM27.756 12.67V15.426H29.756V12.67H27.756ZM28.756 14.426H22.698V16.426H28.756V14.426ZM21.698 15.426V31H23.698V15.426H21.698ZM22.698 30H19.344V32H22.698V30Z" fill="black" mask="url(#path-4-outside-2_63_287)"/>
</svg>
